# Blender v2.81 (sub 16) OBJ File: 'items 4.blend'
# www.blender.org
mtllib newspaper.mtl
o newspaper_Cube.007
v -1.146387 -0.197417 1.512303
v -1.146387 0.197417 1.512303
v -1.146387 -0.197417 -1.512303
v -1.146387 0.197417 -1.512303
v 1.146387 -0.197417 1.512303
v 1.146387 0.197417 1.512303
v 1.146387 -0.197417 -1.512303
v 1.146387 0.197417 -1.512303
v -1.146387 -0.065806 1.512303
v -1.146387 0.065806 1.512303
v -1.146387 0.065806 -1.512303
v -1.146387 -0.065806 -1.512303
v 1.225327 0.065806 -1.512303
v 1.225327 -0.065806 -1.512303
v 1.225327 0.065806 1.512303
v 1.225327 -0.065806 1.512303
vt 0.208765 0.063296
vt 0.184036 0.285337
vt 0.184036 0.063296
vt 0.208765 0.507378
vt 0.184036 0.507378
vt 0.184036 0.729419
vt 0.208765 0.729419
vt 0.184036 0.951460
vt 0.889191 0.042902
vt 0.319392 0.473175
vt 0.889191 0.473175
vt 0.884708 0.952346
vt 0.314909 0.522073
vt 0.884708 0.522073
vt 0.134578 0.729419
vt 0.159307 0.951460
vt 0.134578 0.951460
vt 0.159307 0.729419
vt 0.159307 0.507378
vt 0.134578 0.507378
vt 0.159307 0.285337
vt 0.134578 0.285337
vt 0.159307 0.063296
vt 0.134578 0.063296
vt 0.208765 0.285337
vt 0.208765 0.951460
vt 0.319392 0.042902
vt 0.314909 0.952346
vn -1.0000 0.0000 0.0000
vn 0.0000 0.0000 -1.0000
vn 0.8576 0.5144 0.0000
vn 0.0000 0.0000 1.0000
vn 0.0000 -1.0000 0.0000
vn 0.0000 1.0000 0.0000
vn 0.8576 -0.5144 0.0000
vn 1.0000 0.0000 0.0000
usemtl Material.016
s off
f 2/1/1 11/2/1 10/3/1
f 11/2/2 8/4/2 13/5/2
f 8/4/3 15/6/3 13/5/3
f 6/7/4 10/8/4 15/6/4
f 7/9/5 1/10/5 3/11/5
f 4/12/6 6/13/6 8/14/6
f 5/15/4 9/16/4 1/17/4
f 15/6/4 9/16/4 16/18/4
f 14/19/7 5/15/7 7/20/7
f 13/5/8 16/18/8 14/19/8
f 12/21/2 7/20/2 3/22/2
f 11/2/2 14/19/2 12/21/2
f 9/23/1 3/22/1 1/24/1
f 10/3/1 12/21/1 9/23/1
f 2/1/1 4/25/1 11/2/1
f 11/2/2 4/25/2 8/4/2
f 8/4/3 6/7/3 15/6/3
f 6/7/4 2/26/4 10/8/4
f 7/9/5 5/27/5 1/10/5
f 4/12/6 2/28/6 6/13/6
f 5/15/4 16/18/4 9/16/4
f 15/6/4 10/8/4 9/16/4
f 14/19/7 16/18/7 5/15/7
f 13/5/8 15/6/8 16/18/8
f 12/21/2 14/19/2 7/20/2
f 11/2/2 13/5/2 14/19/2
f 9/23/1 12/21/1 3/22/1
f 10/3/1 11/2/1 12/21/1
